<svg xmlns="http://www.w3.org/2000/svg" xmlns:xlink="http://www.w3.org/1999/xlink" id="Layer_1" x="0px" y="0px" width="100%" viewBox="0 0 507 97" xml:space="preserve">
<path fill="#FEFEFE" opacity="1.000000" stroke="none" d="M344.000000,98.000000   C229.380585,98.000000 115.261169,98.000000 1.070879,98.000000   C1.070879,65.727432 1.070879,33.454670 1.070879,1.090953   C169.999969,1.090953 338.999969,1.090953 507.966064,1.090953   C507.966064,33.405376 507.966064,65.702713 507.966064,98.000000   C453.454742,98.000000 398.977356,98.000000 344.000000,98.000000  M254.214890,48.093235   C258.655243,57.991840 263.095612,67.890450 267.534668,77.786163   C271.930206,77.786163 276.359772,77.786163 280.637726,77.786163   C285.806915,65.745209 290.874359,53.941212 295.941833,42.137218   C296.150360,42.284431 296.358856,42.431641 296.567383,42.578854   C296.567383,59.984192 296.567383,77.389526 296.567383,94.689941   C303.735687,94.689941 310.648895,94.689941 317.214874,94.689941   C317.214874,64.669563 317.214874,34.964661 317.214874,4.997561   C311.469330,4.997561 306.331268,4.997559 301.193207,4.997562   C293.414551,4.997567 293.443176,5.007849 290.698486,12.648802   C290.092438,14.336022 289.151855,15.899864 288.455902,17.558525   C285.258850,25.177824 282.194183,32.854637 278.869873,40.417576   C277.476807,43.586853 275.557983,46.525013 273.700897,49.889473   C271.043365,43.323425 268.823608,37.422157 266.282959,31.662432   C262.753113,23.660124 259.034546,15.739075 255.257156,7.850092   C254.711624,6.710771 253.412628,5.160245 252.421112,5.129530   C245.005905,4.899825 237.580307,5.004602 230.285172,5.004602   C230.285172,35.339375 230.285172,65.062431 230.285172,94.717621   C237.645935,94.717621 244.716248,94.717621 252.002411,94.717621   C252.002411,85.797119 252.002411,77.159630 252.002411,68.522133   C252.002411,59.898895 252.002411,51.275658 252.002411,41.535801   C252.782669,43.148899 253.188660,43.782932 253.400330,44.476284   C253.683487,45.403751 253.816010,46.377205 254.214890,48.093235  M56.438126,93.030479   C67.009216,90.646919 73.278862,83.753769 74.840256,73.402771   C76.617432,61.621231 73.149872,51.766163 60.857792,46.620136   C62.278488,45.600746 63.335789,44.822781 64.412453,44.072605   C73.325317,37.862480 74.712242,21.885033 68.060188,14.287574   C63.145733,8.674671 57.580418,5.630893 50.053127,5.715045   C35.167797,5.881460 20.279291,5.764160 5.272849,5.764160   C5.272849,35.231407 5.272849,64.926476 5.272849,94.999664   C17.989290,94.999664 30.439558,95.150459 42.882587,94.916473   C47.139187,94.836433 51.377640,93.791603 56.438126,93.030479  M86.124886,94.190857   C87.693687,94.460556 89.261353,94.956329 90.831474,94.964233   C103.495880,95.028008 116.160751,94.999977 128.825485,94.999992   C134.102005,94.999992 139.378540,94.999992 144.671906,94.999992   C144.671906,88.042526 144.671906,81.650787 144.671906,74.760269   C132.618546,74.760269 120.886475,74.760269 109.244461,74.760269   C109.244461,69.308067 109.244461,64.366356 109.244461,58.927727   C119.543152,58.927727 129.609268,58.927727 139.750671,58.927727   C139.750671,52.165817 139.750671,45.913803 139.750671,39.171883   C129.462189,39.171883 119.412735,39.171883 109.246719,39.171883   C109.246719,33.927010 109.246719,29.176905 109.246719,23.922047   C121.214226,23.922047 132.945175,23.922047 144.659729,23.922047   C144.659729,17.350306 144.659729,11.291083 144.659729,5.385285   C124.927101,5.385285 105.536949,5.385285 86.017021,5.385285   C86.017021,34.926422 86.017021,64.082558 86.124886,94.190857  M406.001404,90.545052   C403.951141,83.349274 402.087250,76.094017 399.812958,68.969757   C394.618561,52.698242 389.209808,36.495232 383.924835,20.252449   C383.173035,17.941845 382.505920,15.589842 382.006470,13.213513   C380.381866,5.483921 379.661987,4.901647 371.629089,5.003570   C366.637604,5.066902 361.619110,4.757425 356.667542,5.212146   C355.041138,5.361505 352.661011,7.098606 352.197144,8.596380   C347.573090,23.527067 343.463135,38.617027 338.835754,53.546619   C334.590332,67.243698 329.887054,80.798859 325.192169,95.001434   C329.866760,95.001434 333.511200,95.001442 337.155640,95.001442   C348.414154,95.001450 348.445496,95.010551 351.506866,84.473946   C351.992676,82.801910 352.051483,81.005821 352.346832,79.001831   C360.747467,79.001831 369.051819,78.877251 377.343964,79.138382   C378.564301,79.176819 380.405121,80.837540 380.792206,82.104164   C382.068268,86.280106 382.808716,90.619705 383.746796,94.860016   C391.803711,94.860016 399.270050,94.860016 406.767090,94.860016   C406.491577,93.612320 406.247314,92.506050 406.001404,90.545052  M220.998291,12.549765   C220.998291,10.122783 220.998291,7.695801 220.998291,5.335248   C197.653152,5.335248 174.953629,5.335248 152.374237,5.335248   C152.374237,11.728941 152.374237,17.782925 152.374237,24.140856   C160.012985,24.140856 167.282837,24.140856 175.012543,24.140856   C175.012543,47.824940 175.012543,71.194138 175.012543,94.720482   C182.867920,94.720482 190.250549,94.720482 198.057312,94.720482   C198.057312,71.082787 198.057312,47.718395 198.057312,23.887527   C205.873245,23.887527 213.272903,23.887527 220.998291,23.887527   C220.998291,20.120842 220.998291,16.822489 220.998291,12.549765  M415.000031,47.500000   C415.000031,63.253395 415.000031,79.006790 415.000031,94.504959   C434.616760,94.504959 453.682037,94.504959 472.734375,94.504959   C472.734375,87.756943 472.734375,81.507545 472.734375,74.872719   C460.738007,74.872719 449.001801,74.872719 436.813416,74.872719   C436.813416,51.442402 436.813416,28.398891 436.813416,5.302415   C429.296722,5.302415 422.244934,5.302415 415.000031,5.302415   C415.000031,19.229805 415.000031,32.864902 415.000031,47.500000  M501.307373,5.065928   C494.908997,5.065928 488.510651,5.065928 482.387756,5.065928   C482.387756,35.336430 482.387756,65.017334 482.387756,94.242607   C489.808228,94.242607 496.826416,94.242607 504.000671,94.242607   C504.000671,65.038254 504.016815,36.424652 503.927979,7.811379   C503.925110,6.888137 502.847992,5.968231 501.307373,5.065928  z"/>
<path fill="#020202" opacity="1.000000" stroke="none" d="M254.114044,47.712074   C253.816010,46.377205 253.683487,45.403751 253.400330,44.476284   C253.188660,43.782932 252.782669,43.148899 252.002411,41.535801   C252.002411,51.275658 252.002411,59.898895 252.002411,68.522133   C252.002411,77.159630 252.002411,85.797119 252.002411,94.717621   C244.716248,94.717621 237.645935,94.717621 230.285172,94.717621   C230.285172,65.062431 230.285172,35.339375 230.285172,5.004602   C237.580307,5.004602 245.005905,4.899825 252.421112,5.129530   C253.412628,5.160245 254.711624,6.710771 255.257156,7.850092   C259.034546,15.739075 262.753113,23.660124 266.282959,31.662432   C268.823608,37.422157 271.043365,43.323425 273.700897,49.889473   C275.557983,46.525013 277.476807,43.586853 278.869873,40.417576   C282.194183,32.854637 285.258850,25.177824 288.455902,17.558525   C289.151855,15.899864 290.092438,14.336022 290.698486,12.648802   C293.443176,5.007849 293.414551,4.997567 301.193207,4.997562   C306.331268,4.997559 311.469330,4.997561 317.214874,4.997561   C317.214874,34.964661 317.214874,64.669563 317.214874,94.689941   C310.648895,94.689941 303.735687,94.689941 296.567383,94.689941   C296.567383,77.389526 296.567383,59.984192 296.567383,42.578854   C296.358856,42.431641 296.150360,42.284431 295.941833,42.137218   C290.874359,53.941212 285.806915,65.745209 280.637726,77.786163   C276.359772,77.786163 271.930206,77.786163 267.534668,77.786163   C263.095612,67.890450 258.655243,57.991840 254.114044,47.712074  z"/>
<path fill="#2DA962" opacity="1.000000" stroke="none" d="M56.031258,93.109024   C51.377640,93.791603 47.139187,94.836433 42.882587,94.916473   C30.439558,95.150459 17.989290,94.999664 5.272849,94.999664   C5.272849,64.926476 5.272849,35.231407 5.272849,5.764160   C20.279291,5.764160 35.167797,5.881460 50.053127,5.715045   C57.580418,5.630893 63.145733,8.674671 68.060188,14.287574   C74.712242,21.885033 73.325317,37.862480 64.412453,44.072605   C63.335789,44.822781 62.278488,45.600746 60.857792,46.620136   C73.149872,51.766163 76.617432,61.621231 74.840256,73.402771   C73.278862,83.753769 67.009216,90.646919 56.031258,93.109024  M49.990753,73.596146   C55.503151,69.464821 55.200718,63.777493 49.499306,60.245544   C42.349369,55.816261 34.760971,58.696056 27.420034,58.006672   C27.420034,64.288338 27.420034,70.006332 27.420034,76.944542   C35.089928,75.918015 42.201801,74.966179 49.990753,73.596146  M27.155071,37.197647   C27.483093,38.048817 27.876060,39.661343 28.129633,39.639709   C34.339554,39.109993 40.646622,38.870716 46.656746,37.420723   C48.235500,37.039837 49.797283,32.772297 49.692238,30.362621   C49.597889,28.198219 47.393459,24.501026 45.790905,24.315096   C39.633244,23.600681 33.343384,24.025686 27.152826,24.025686   C27.152826,28.606915 27.152826,32.430767 27.155071,37.197647  z"/>
<path fill="#2DA963" opacity="1.000000" stroke="none" d="M86.070953,93.714775   C86.017021,64.082558 86.017021,34.926422 86.017021,5.385285   C105.536949,5.385285 124.927101,5.385285 144.659729,5.385285   C144.659729,11.291083 144.659729,17.350306 144.659729,23.922047   C132.945175,23.922047 121.214226,23.922047 109.246719,23.922047   C109.246719,29.176905 109.246719,33.927010 109.246719,39.171883   C119.412735,39.171883 129.462189,39.171883 139.750671,39.171883   C139.750671,45.913803 139.750671,52.165817 139.750671,58.927727   C129.609268,58.927727 119.543152,58.927727 109.244461,58.927727   C109.244461,64.366356 109.244461,69.308067 109.244461,74.760269   C120.886475,74.760269 132.618546,74.760269 144.671906,74.760269   C144.671906,81.650787 144.671906,88.042526 144.671906,94.999992   C139.378540,94.999992 134.102005,94.999992 128.825485,94.999992   C116.160751,94.999977 103.495880,95.028008 90.831474,94.964233   C89.261353,94.956329 87.693687,94.460556 86.070953,93.714775  z"/>
<path fill="#010101" opacity="1.000000" stroke="none" d="M406.002197,90.972412   C406.247314,92.506050 406.491577,93.612320 406.767090,94.860016   C399.270050,94.860016 391.803711,94.860016 383.746796,94.860016   C382.808716,90.619705 382.068268,86.280106 380.792206,82.104164   C380.405121,80.837540 378.564301,79.176819 377.343964,79.138382   C369.051819,78.877251 360.747467,79.001831 352.346832,79.001831   C352.051483,81.005821 351.992676,82.801910 351.506866,84.473946   C348.445496,95.010551 348.414154,95.001450 337.155640,95.001442   C333.511200,95.001442 329.866760,95.001434 325.192169,95.001434   C329.887054,80.798859 334.590332,67.243698 338.835754,53.546619   C343.463135,38.617027 347.573090,23.527067 352.197144,8.596380   C352.661011,7.098606 355.041138,5.361505 356.667542,5.212146   C361.619110,4.757425 366.637604,5.066902 371.629089,5.003570   C379.661987,4.901647 380.381866,5.483921 382.006470,13.213513   C382.505920,15.589842 383.173035,17.941845 383.924835,20.252449   C389.209808,36.495232 394.618561,52.698242 399.812958,68.969757   C402.087250,76.094017 403.951141,83.349274 406.002197,90.972412  M358.011902,55.966022   C358.011902,57.560707 358.011902,59.155392 358.011902,60.644409   C363.859131,60.644409 369.378510,60.644409 375.048889,60.644409   C372.151001,49.428253 369.355316,38.607780 366.559662,27.787310   C366.276825,27.939829 365.994019,28.092346 365.711182,28.244865   C363.215027,37.201035 360.718903,46.157204 358.011902,55.966022  z"/>
<path fill="#2CA962" opacity="1.000000" stroke="none" d="M220.998291,13.036950   C220.998291,16.822489 220.998291,20.120842 220.998291,23.887527   C213.272903,23.887527 205.873245,23.887527 198.057312,23.887527   C198.057312,47.718395 198.057312,71.082787 198.057312,94.720482   C190.250549,94.720482 182.867920,94.720482 175.012543,94.720482   C175.012543,71.194138 175.012543,47.824940 175.012543,24.140856   C167.282837,24.140856 160.012985,24.140856 152.374237,24.140856   C152.374237,17.782925 152.374237,11.728941 152.374237,5.335248   C174.953629,5.335248 197.653152,5.335248 220.998291,5.335248   C220.998291,7.695801 220.998291,10.122783 220.998291,13.036950  z"/>
<path fill="#010101" opacity="1.000000" stroke="none" d="M415.000031,47.000000   C415.000031,32.864902 415.000031,19.229805 415.000031,5.302415   C422.244934,5.302415 429.296722,5.302415 436.813416,5.302415   C436.813416,28.398891 436.813416,51.442402 436.813416,74.872719   C449.001801,74.872719 460.738007,74.872719 472.734375,74.872719   C472.734375,81.507545 472.734375,87.756943 472.734375,94.504959   C453.682037,94.504959 434.616760,94.504959 415.000031,94.504959   C415.000031,79.006790 415.000031,63.253395 415.000031,47.000000  z"/>
<path fill="#010101" opacity="1.000000" stroke="none" d="M501.789520,5.056348   C502.847992,5.968231 503.925110,6.888137 503.927979,7.811379   C504.016815,36.424652 504.000671,65.038254 504.000671,94.242607   C496.826416,94.242607 489.808228,94.242607 482.387756,94.242607   C482.387756,65.017334 482.387756,35.336430 482.387756,5.065928   C488.510651,5.065928 494.908997,5.065928 501.789520,5.056348  z"/>
<path fill="#FDFEFD" opacity="1.000000" stroke="none" d="M49.652214,73.805244   C42.201801,74.966179 35.089928,75.918015 27.420034,76.944542   C27.420034,70.006332 27.420034,64.288338 27.420034,58.006672   C34.760971,58.696056 42.349369,55.816261 49.499306,60.245544   C55.200718,63.777493 55.503151,69.464821 49.652214,73.805244  z"/>
<path fill="#FCFEFD" opacity="1.000000" stroke="none" d="M27.153950,36.726135   C27.152826,32.430767 27.152826,28.606915 27.152826,24.025686   C33.343384,24.025686 39.633244,23.600681 45.790905,24.315096   C47.393459,24.501026 49.597889,28.198219 49.692238,30.362621   C49.797283,32.772297 48.235500,37.039837 46.656746,37.420723   C40.646622,38.870716 34.339554,39.109993 28.129633,39.639709   C27.876060,39.661343 27.483093,38.048817 27.153950,36.726135  z"/>
<path fill="#FCFCFC" opacity="1.000000" stroke="none" d="M358.117310,55.539696   C360.718903,46.157204 363.215027,37.201035 365.711182,28.244865   C365.994019,28.092346 366.276825,27.939829 366.559662,27.787310   C369.355316,38.607780 372.151001,49.428253 375.048889,60.644409   C369.378510,60.644409 363.859131,60.644409 358.011902,60.644409   C358.011902,59.155392 358.011902,57.560707 358.117310,55.539696  z"/>
</svg>